<?xml version="1.0" encoding="UTF-8" standalone="no"?>
<svg xmlns:dc="http://purl.org/dc/elements/1.1/" xmlns:cc="http://creativecommons.org/ns#" xmlns:rdf="http://www.w3.org/1999/02/22-rdf-syntax-ns#" xmlns:svg="http://www.w3.org/2000/svg" xmlns="http://www.w3.org/2000/svg" version="1.1" id="Layer_1" x="0px" y="0px" viewBox="0 0 797.3 185.2" style="enable-background:new 0 0 797.3 185.2;" xml:space="preserve"><defs id="defs56"/><g style="fill:#ffffff" id="g3469"><g id="Wikimedia-text"><path id="path5" d="m 243.2,78.4 11.9,-38.6 15.6,0 11.8,38.6 13.3,-38.6 16.2,0 -23.4,67.1 -11.1,0 -14.7,-46.7 -14.6,46.7 -11.1,0 -23.4,-67.1 16.2,0 13.3,38.6 z"/><path id="path7" d="m 320.1,39.8 15,0 0,67.1 -15,0 0,-67.1 z"/><path id="path9" d="m 351.6,39.8 15,0 0,27.6 25.3,-27.6 18.5,0 -26.7,29.7 c 2.3,3.2 6.6,9.2 12.8,17.9 6.2,8.7 10.8,15.2 13.9,19.5 l -17.5,0 -19.7,-26.5 -6.7,7.5 0,19 -15,0 0,-67.1 z"/><path id="path11" d="m 419.7,39.8 15,0 0,67.1 -15,0 0,-67.1 z"/><path id="path13" d="m 511.3,64.7 -18.1,36.7 -8.9,0 -18,-36.7 0,42.2 -15,0 0,-67.1 20.3,0 17.3,36.9 17.4,-36.9 20.2,0 0,67.1 -15,0 0,-42.2 z"/><path id="path15" d="m 591.2,39.8 0,13.3 -33.4,0 0,13.9 30,0 0,12.8 -30,0 0,13.9 34.5,0 0,13.2 -49.4,0 0,-67.1 48.3,0 z"/><path id="path17" d="m 656.8,48.6 c 6.4,5.9 9.6,14 9.6,24.4 0,10.4 -3.1,18.7 -9.4,24.8 -6.2,6.1 -15.8,9.1 -28.6,9.1 l -22.9,0 0,-67.1 23.7,0 c 12.1,0 21.2,3 27.6,8.8 z m -10.9,39.9 c 3.7,-3.5 5.5,-8.5 5.5,-15.1 0,-6.6 -1.8,-11.7 -5.5,-15.2 -3.7,-3.6 -9.3,-5.3 -16.9,-5.3 l -8.4,0 0,40.8 9.5,0 c 6.8,0 12.1,-1.7 15.8,-5.2 z"/><path id="path19" d="m 679.4,39.8 15,0 0,67.1 -15,0 0,-67.1 z"/><path id="path21" d="m 758.7,106.9 -6.2,-14.5 -28.1,0 -6.2,14.5 -15.9,0 29,-67.1 14.5,0 29,67.1 -16.1,0 z m -20.3,-47.1 -8.4,19.5 16.8,0 -8.4,-19.5 z"/></g><g id="emblem"><path id="path47" d="m 108.3,144.4 c 25.3,-3.6 44.7,-25.3 44.7,-51.5 0,-16 -7.2,-30.2 -18.5,-39.8 l -26.2,26.2 0,65.1 z"/><path id="path49" d="M 93.6,144.4 93.6,79.3 67.4,53 c -11.3,9.5 -18.5,23.8 -18.5,39.8 0,26.3 19.4,48 44.7,51.6 z"/><path id="path51" d="m 146.2,47.6 c 12.1,12.1 18.7,28.2 18.7,45.2 0,17 -6.7,33.2 -18.7,45.2 C 134.1,150.1 118,156.7 101,156.7 84,156.7 67.8,150 55.8,138 43.8,126 37,109.9 37,92.8 37,75.7 43.7,59.6 55.7,47.6 c 1,-1 2.1,-2 3.2,-3 L 44.3,30 c -1.1,1 -2.1,2 -3.2,3 -7.8,7.8 -13.9,16.8 -18.1,26.9 -4.4,10.4 -6.7,21.5 -6.7,32.9 0,11.4 2.2,22.5 6.7,32.9 4.3,10.1 10.4,19.1 18.1,26.9 7.8,7.8 16.8,13.9 26.9,18.1 10.4,4.4 21.5,6.7 32.9,6.7 11.4,0 22.5,-2.2 32.9,-6.7 10.1,-4.3 19.1,-10.4 26.9,-18.1 7.8,-7.8 13.9,-16.8 18.1,-26.9 4.4,-10.4 6.7,-21.5 6.7,-32.9 0,-11.4 -2.2,-22.5 -6.7,-32.9 -4.3,-10.1 -10.4,-19.1 -18.1,-26.9 -1,-1 -2.1,-2 -3.2,-3 L 143,44.6 c 1.1,0.9 2.1,1.9 3.2,3 z"/><circle r="26.4" cy="34.099998" cx="100.9" id="red_circle_3_"/></g><g id="Sverige-text"><path d="m 257.06312,140.15219 q -2.26125,-1.38188 -4.64813,-2.13563 -2.345,-0.75375 -4.14562,-0.75375 -2.01,0 -3.1825,0.75375 -1.1725,0.75375 -1.1725,2.09375 0,1.21438 0.79562,2.05188 0.8375,0.79562 2.05188,1.34 1.25625,0.5025 3.39187,1.13062 2.97313,0.87938 4.8575,1.75875 1.92625,0.87938 3.26625,2.59625 1.34,1.71688 1.34,4.5225 0,2.68 -1.46562,4.69 -1.42375,1.96813 -3.97813,3.015 -2.5125,1.04688 -5.77875,1.04688 -3.43375,0 -6.7,-1.25625 -3.26625,-1.29813 -5.695,-3.43375 l 2.345,-4.77375 q 2.21938,2.05187 4.98313,3.22437 2.76375,1.1725 5.15062,1.1725 2.345,0 3.685,-0.87937 1.34,-0.92125 1.34,-2.47063 0,-1.25625 -0.8375,-2.05187 -0.79562,-0.8375 -2.05187,-1.34 -1.25625,-0.5025 -3.43375,-1.13063 -2.97313,-0.87937 -4.8575,-1.71687 -1.88438,-0.8375 -3.22438,-2.5125 -1.34,-1.71688 -1.34,-4.48063 0,-2.55437 1.34,-4.43875 1.38188,-1.92625 3.8525,-2.97312 2.5125,-1.04688 5.77875,-1.04688 2.8475,0 5.61125,0.8375 2.80563,0.8375 4.98313,2.26125 l -2.26125,4.89938 z" id="path3361"/><path d="m 281.90284,132.61469 6.03,0 8.62625,23.07312 8.71,-23.07312 5.77875,0 -11.725,29.3125 -5.82062,0 -11.59938,-29.3125 z" id="path3363"/><path d="m 335.22869,132.61469 21.48188,0 0,4.89937 -15.87063,0 0,7.24438 14.2375,0 0,4.89937 -14.2375,0 0,7.37 16.37313,0 0,4.89938 -21.98438,0 0,-29.3125 z" id="path3365"/><path d="m 401.66076,161.92719 -5.06687,-8.66813 q -0.335,0.0419 -1.04688,0.0419 l -6.61625,0 0,8.62625 -5.61125,0 0,-29.3125 12.2275,0 q 5.695,0 8.79375,2.63812 3.09875,2.63813 3.09875,7.45375 0,3.43375 -1.5075,5.8625 -1.46562,2.42875 -4.31312,3.64313 l 6.44875,9.715 -6.40688,0 z m -12.73,-13.5675 6.61625,0 q 3.1825,0 4.8575,-1.38188 1.675,-1.38187 1.675,-4.10375 0,-2.68 -1.675,-4.02 -1.675,-1.34 -4.8575,-1.34 l -6.61625,0 0,10.84563 z" id="path3367"/><path d="m 434.02752,132.61469 5.61125,0 0,29.3125 -5.61125,0 0,-29.3125 z" id="path3369"/><path d="m 487.2055,147.35469 4.89937,0 0,11.13875 q -2.30312,1.71687 -5.44375,2.80562 -3.14062,1.04688 -6.15562,1.04688 -4.31313,0 -7.8725,-2.01 -3.5175,-2.01 -5.56938,-5.44375 -2.05187,-3.47563 -2.05187,-7.66313 0,-4.1875 2.09375,-7.57937 2.09375,-3.43375 5.695,-5.40188 3.64312,-2.01 8.04,-2.01 3.14062,0 6.1975,1.13063 3.05687,1.13062 5.27625,3.09875 l -3.1825,4.14562 q -1.675,-1.59125 -3.89438,-2.47062 -2.1775,-0.87938 -4.39687,-0.87938 -2.76375,0 -5.10875,1.34 -2.30313,1.29813 -3.64313,3.60125 -1.34,2.30313 -1.34,5.025 0,2.76375 1.34,5.06688 1.38188,2.30312 3.685,3.64312 2.30313,1.34 5.10875,1.34 1.5075,0 3.14063,-0.46062 1.675,-0.5025 3.1825,-1.38188 l 0,-8.08187 z" id="path3371"/><path d="m 519.00433,132.61469 21.48187,0 0,4.89937 -15.87062,0 0,7.24438 14.2375,0 0,4.89937 -14.2375,0 0,7.37 16.37312,0 0,4.89938 -21.98437,0 0,-29.3125 z" id="path3373"/></g></g><metadata id="metadata3365"><rdf:RDF><cc:Work rdf:about=""><dc:title/></cc:Work></rdf:RDF></metadata></svg>